<svg id="visual" viewBox="0 0 1000 100" width="1000" height="100" xmlns="http://www.w3.org/2000/svg" xmlns:xlink="http://www.w3.org/1999/xlink" version="1.1"><rect x="0" y="0" width="1000" height="100" fill="#132736"></rect><path d="M0 6L11.2 7C22.3 8 44.7 10 66.8 10.5C89 11 111 10 133.2 9C155.3 8 177.7 7 200 9.3C222.3 11.7 244.7 17.3 266.8 20.3C289 23.3 311 23.7 333.2 22.2C355.3 20.7 377.7 17.3 400 15.8C422.3 14.3 444.7 14.7 466.8 15.7C489 16.7 511 18.3 533.2 19.3C555.3 20.3 577.7 20.7 600 20.5C622.3 20.3 644.7 19.7 666.8 18.7C689 17.7 711 16.3 733.2 14.5C755.3 12.7 777.7 10.3 800 11.3C822.3 12.3 844.7 16.7 866.8 17.2C889 17.7 911 14.3 933.2 13C955.3 11.7 977.7 12.3 988.8 12.7L1000 13L1000 101L988.8 101C977.7 101 955.3 101 933.2 101C911 101 889 101 866.8 101C844.7 101 822.3 101 800 101C777.7 101 755.3 101 733.2 101C711 101 689 101 666.8 101C644.7 101 622.3 101 600 101C577.7 101 555.3 101 533.2 101C511 101 489 101 466.8 101C444.7 101 422.3 101 400 101C377.7 101 355.3 101 333.2 101C311 101 289 101 266.8 101C244.7 101 222.3 101 200 101C177.7 101 155.3 101 133.2 101C111 101 89 101 66.8 101C44.7 101 22.3 101 11.2 101L0 101Z" fill="#132736"></path><path d="M0 23L11.2 24.8C22.3 26.7 44.7 30.3 66.8 33.3C89 36.3 111 38.7 133.2 37.7C155.3 36.7 177.7 32.3 200 30.3C222.3 28.3 244.7 28.7 266.8 28.8C289 29 311 29 333.2 28.8C355.3 28.7 377.7 28.3 400 28.3C422.3 28.3 444.7 28.7 466.8 29.2C489 29.7 511 30.3 533.2 32.3C555.3 34.3 577.7 37.7 600 36.3C622.3 35 644.7 29 666.8 26.5C689 24 711 25 733.2 25.5C755.3 26 777.7 26 800 27.5C822.3 29 844.7 32 866.8 32.2C889 32.3 911 29.7 933.2 30.2C955.3 30.7 977.7 34.3 988.8 36.2L1000 38L1000 101L988.8 101C977.7 101 955.3 101 933.2 101C911 101 889 101 866.8 101C844.7 101 822.3 101 800 101C777.7 101 755.3 101 733.2 101C711 101 689 101 666.8 101C644.7 101 622.3 101 600 101C577.7 101 555.3 101 533.2 101C511 101 489 101 466.8 101C444.7 101 422.3 101 400 101C377.7 101 355.3 101 333.2 101C311 101 289 101 266.8 101C244.7 101 222.3 101 200 101C177.7 101 155.3 101 133.2 101C111 101 89 101 66.8 101C44.7 101 22.3 101 11.2 101L0 101Z" fill="#3e3b68"></path><path d="M0 56L11.2 55.2C22.3 54.3 44.7 52.7 66.8 51.3C89 50 111 49 133.2 49.3C155.3 49.7 177.7 51.3 200 52.2C222.3 53 244.7 53 266.8 51.5C289 50 311 47 333.2 45.2C355.3 43.3 377.7 42.7 400 42.7C422.3 42.7 444.7 43.3 466.8 46.2C489 49 511 54 533.2 56.2C555.3 58.3 577.7 57.7 600 57C622.3 56.3 644.7 55.7 666.8 53.7C689 51.7 711 48.3 733.2 48C755.3 47.7 777.7 50.3 800 50C822.3 49.7 844.7 46.3 866.8 44.3C889 42.3 911 41.7 933.2 41.2C955.3 40.7 977.7 40.3 988.8 40.2L1000 40L1000 101L988.8 101C977.7 101 955.3 101 933.2 101C911 101 889 101 866.8 101C844.7 101 822.3 101 800 101C777.7 101 755.3 101 733.2 101C711 101 689 101 666.8 101C644.7 101 622.3 101 600 101C577.7 101 555.3 101 533.2 101C511 101 489 101 466.8 101C444.7 101 422.3 101 400 101C377.7 101 355.3 101 333.2 101C311 101 289 101 266.8 101C244.7 101 222.3 101 200 101C177.7 101 155.3 101 133.2 101C111 101 89 101 66.8 101C44.7 101 22.3 101 11.2 101L0 101Z" fill="#923d7b"></path><path d="M0 71L11.2 70.8C22.3 70.7 44.7 70.3 66.8 69.8C89 69.3 111 68.7 133.2 69.3C155.3 70 177.7 72 200 70.7C222.3 69.3 244.7 64.7 266.8 63.5C289 62.3 311 64.7 333.2 64C355.3 63.3 377.7 59.7 400 59.3C422.3 59 444.7 62 466.8 62.7C489 63.3 511 61.7 533.2 62.8C555.3 64 577.7 68 600 67.7C622.3 67.3 644.7 62.7 666.8 60.5C689 58.3 711 58.7 733.2 60.7C755.3 62.7 777.7 66.3 800 68.8C822.3 71.3 844.7 72.7 866.8 71.8C889 71 911 68 933.2 65C955.3 62 977.7 59 988.8 57.5L1000 56L1000 101L988.8 101C977.7 101 955.3 101 933.2 101C911 101 889 101 866.8 101C844.7 101 822.3 101 800 101C777.7 101 755.3 101 733.2 101C711 101 689 101 666.8 101C644.7 101 622.3 101 600 101C577.7 101 555.3 101 533.2 101C511 101 489 101 466.8 101C444.7 101 422.3 101 400 101C377.7 101 355.3 101 333.2 101C311 101 289 101 266.8 101C244.7 101 222.3 101 200 101C177.7 101 155.3 101 133.2 101C111 101 89 101 66.8 101C44.7 101 22.3 101 11.2 101L0 101Z" fill="#dd415e"></path><path d="M0 74L11.2 73.7C22.3 73.3 44.7 72.7 66.8 73.3C89 74 111 76 133.2 76.2C155.3 76.3 177.7 74.7 200 75.8C222.3 77 244.7 81 266.8 83.7C289 86.3 311 87.7 333.2 86C355.3 84.3 377.7 79.7 400 78.8C422.3 78 444.7 81 466.8 80.8C489 80.7 511 77.3 533.2 77.3C555.3 77.3 577.7 80.7 600 83.3C622.3 86 644.7 88 666.8 88.2C689 88.3 711 86.7 733.2 84.7C755.3 82.7 777.7 80.3 800 78.5C822.3 76.7 844.7 75.3 866.8 77C889 78.7 911 83.3 933.2 85.3C955.3 87.3 977.7 86.7 988.8 86.3L1000 86L1000 101L988.8 101C977.7 101 955.3 101 933.2 101C911 101 889 101 866.8 101C844.7 101 822.3 101 800 101C777.7 101 755.3 101 733.2 101C711 101 689 101 666.8 101C644.7 101 622.3 101 600 101C577.7 101 555.3 101 533.2 101C511 101 489 101 466.8 101C444.7 101 422.3 101 400 101C377.7 101 355.3 101 333.2 101C311 101 289 101 266.8 101C244.7 101 222.3 101 200 101C177.7 101 155.3 101 133.2 101C111 101 89 101 66.8 101C44.7 101 22.3 101 11.2 101L0 101Z" fill="#f7770f"></path></svg>