<svg id="visual" viewBox="0 0 1000 100" width="1000" height="100" xmlns="http://www.w3.org/2000/svg" xmlns:xlink="http://www.w3.org/1999/xlink" version="1.1"><rect x="0" y="0" width="1000" height="100" fill="#009473"></rect><path d="M0 92L11.2 91C22.3 90 44.7 88 66.8 87.5C89 87 111 88 133.2 89C155.3 90 177.7 91 200 88.7C222.3 86.3 244.7 80.7 266.8 77.7C289 74.7 311 74.3 333.2 75.8C355.3 77.3 377.7 80.7 400 82.2C422.3 83.7 444.7 83.3 466.8 82.3C489 81.3 511 79.7 533.2 78.7C555.3 77.7 577.7 77.3 600 77.5C622.3 77.7 644.7 78.3 666.8 79.3C689 80.3 711 81.7 733.2 83.5C755.3 85.3 777.7 87.7 800 86.7C822.3 85.7 844.7 81.3 866.8 80.8C889 80.3 911 83.7 933.2 85C955.3 86.3 977.7 85.7 988.8 85.3L1000 85L1000 0L988.8 0C977.7 0 955.3 0 933.2 0C911 0 889 0 866.8 0C844.7 0 822.3 0 800 0C777.7 0 755.3 0 733.2 0C711 0 689 0 666.8 0C644.7 0 622.3 0 600 0C577.7 0 555.3 0 533.2 0C511 0 489 0 466.8 0C444.7 0 422.3 0 400 0C377.7 0 355.3 0 333.2 0C311 0 289 0 266.8 0C244.7 0 222.3 0 200 0C177.7 0 155.3 0 133.2 0C111 0 89 0 66.8 0C44.7 0 22.3 0 11.2 0L0 0Z" fill="#009473"></path><path d="M0 75L11.2 73.2C22.3 71.3 44.7 67.7 66.8 64.7C89 61.7 111 59.3 133.2 60.3C155.3 61.3 177.7 65.7 200 67.7C222.3 69.7 244.7 69.3 266.8 69.2C289 69 311 69 333.2 69.2C355.3 69.3 377.7 69.7 400 69.7C422.3 69.7 444.7 69.3 466.8 68.8C489 68.3 511 67.7 533.2 65.7C555.3 63.7 577.7 60.3 600 61.7C622.3 63 644.7 69 666.8 71.5C689 74 711 73 733.2 72.5C755.3 72 777.7 72 800 70.5C822.3 69 844.7 66 866.8 65.8C889 65.7 911 68.3 933.2 67.8C955.3 67.3 977.7 63.7 988.8 61.8L1000 60L1000 0L988.8 0C977.7 0 955.3 0 933.2 0C911 0 889 0 866.8 0C844.7 0 822.3 0 800 0C777.7 0 755.3 0 733.2 0C711 0 689 0 666.8 0C644.7 0 622.3 0 600 0C577.7 0 555.3 0 533.2 0C511 0 489 0 466.8 0C444.7 0 422.3 0 400 0C377.7 0 355.3 0 333.2 0C311 0 289 0 266.8 0C244.7 0 222.3 0 200 0C177.7 0 155.3 0 133.2 0C111 0 89 0 66.8 0C44.7 0 22.3 0 11.2 0L0 0Z" fill="#4a994c"></path><path d="M0 42L11.2 42.8C22.3 43.7 44.7 45.3 66.8 46.7C89 48 111 49 133.2 48.7C155.3 48.3 177.7 46.7 200 45.8C222.3 45 244.7 45 266.8 46.5C289 48 311 51 333.2 52.8C355.3 54.7 377.7 55.3 400 55.3C422.3 55.3 444.7 54.7 466.8 51.8C489 49 511 44 533.2 41.8C555.3 39.7 577.7 40.3 600 41C622.3 41.7 644.7 42.3 666.8 44.3C689 46.3 711 49.7 733.2 50C755.3 50.3 777.7 47.7 800 48C822.3 48.3 844.7 51.7 866.8 53.7C889 55.7 911 56.3 933.2 56.8C955.3 57.3 977.7 57.7 988.8 57.8L1000 58L1000 0L988.8 0C977.7 0 955.3 0 933.2 0C911 0 889 0 866.8 0C844.7 0 822.3 0 800 0C777.7 0 755.3 0 733.2 0C711 0 689 0 666.8 0C644.7 0 622.3 0 600 0C577.7 0 555.3 0 533.2 0C511 0 489 0 466.8 0C444.7 0 422.3 0 400 0C377.7 0 355.3 0 333.2 0C311 0 289 0 266.8 0C244.7 0 222.3 0 200 0C177.7 0 155.3 0 133.2 0C111 0 89 0 66.8 0C44.7 0 22.3 0 11.2 0L0 0Z" fill="#81991a"></path><path d="M0 27L11.2 27.2C22.3 27.3 44.7 27.7 66.8 28.2C89 28.7 111 29.3 133.2 28.7C155.3 28 177.7 26 200 27.3C222.3 28.7 244.7 33.3 266.8 34.5C289 35.7 311 33.3 333.2 34C355.3 34.7 377.7 38.3 400 38.7C422.3 39 444.7 36 466.8 35.3C489 34.7 511 36.3 533.2 35.2C555.3 34 577.7 30 600 30.3C622.3 30.7 644.7 35.3 666.8 37.5C689 39.7 711 39.3 733.2 37.3C755.3 35.3 777.7 31.7 800 29.2C822.3 26.7 844.7 25.3 866.8 26.2C889 27 911 30 933.2 33C955.3 36 977.7 39 988.8 40.5L1000 42L1000 0L988.8 0C977.7 0 955.3 0 933.2 0C911 0 889 0 866.8 0C844.7 0 822.3 0 800 0C777.7 0 755.3 0 733.2 0C711 0 689 0 666.8 0C644.7 0 622.3 0 600 0C577.7 0 555.3 0 533.2 0C511 0 489 0 466.8 0C444.7 0 422.3 0 400 0C377.7 0 355.3 0 333.2 0C311 0 289 0 266.8 0C244.7 0 222.3 0 200 0C177.7 0 155.3 0 133.2 0C111 0 89 0 66.8 0C44.7 0 22.3 0 11.2 0L0 0Z" fill="#bb8f00"></path><path d="M0 24L11.2 24.3C22.3 24.7 44.7 25.3 66.8 24.7C89 24 111 22 133.2 21.8C155.3 21.7 177.7 23.3 200 22.2C222.3 21 244.7 17 266.8 14.3C289 11.7 311 10.3 333.2 12C355.3 13.7 377.7 18.3 400 19.2C422.3 20 444.7 17 466.8 17.2C489 17.3 511 20.7 533.2 20.7C555.3 20.7 577.7 17.3 600 14.7C622.3 12 644.7 10 666.8 9.8C689 9.7 711 11.3 733.2 13.3C755.3 15.3 777.7 17.7 800 19.5C822.3 21.3 844.7 22.7 866.8 21C889 19.3 911 14.7 933.2 12.7C955.3 10.7 977.7 11.3 988.8 11.7L1000 12L1000 0L988.8 0C977.7 0 955.3 0 933.2 0C911 0 889 0 866.8 0C844.7 0 822.3 0 800 0C777.7 0 755.3 0 733.2 0C711 0 689 0 666.8 0C644.7 0 622.3 0 600 0C577.7 0 555.3 0 533.2 0C511 0 489 0 466.8 0C444.7 0 422.3 0 400 0C377.7 0 355.3 0 333.2 0C311 0 289 0 266.8 0C244.7 0 222.3 0 200 0C177.7 0 155.3 0 133.2 0C111 0 89 0 66.8 0C44.7 0 22.3 0 11.2 0L0 0Z" fill="#f7770f"></path></svg>